<svg xmlns="http://www.w3.org/2000/svg" viewBox="0 0 720 860">
    <defs>
        <pattern id="grid" width="48" height="48" patternUnits="userSpaceOnUse">
            <path d="M48 0H0v48" fill="none" stroke="#fffdf8" stroke-opacity=".08" stroke-width="1"/>
        </pattern>
        <linearGradient id="bg" x1="0" y1="0" x2="1" y2="1">
            <stop stop-color="#292922"/>
            <stop offset="1" stop-color="#151512"/>
        </linearGradient>
    </defs>
    <rect width="720" height="860" fill="url(#bg)"/>
    <rect width="720" height="860" fill="url(#grid)"/>
    <circle cx="610" cy="130" r="210" fill="#ff603d" fill-opacity=".18"/>
    <circle cx="105" cy="735" r="255" fill="#6f5ce8" fill-opacity=".24"/>
    <path d="M0 590C150 500 235 735 395 620s215-25 325-95v335H0Z" fill="#dfff45" fill-opacity=".12"/>
    <rect x="72" y="68" width="576" height="724" rx="260" fill="none" stroke="#fffdf8" stroke-opacity=".18"/>
    <path d="M115 235h150M455 235h150" stroke="#dfff45" stroke-width="8" stroke-linecap="round"/>
    <text x="360" y="445" text-anchor="middle" fill="#fffdf8" font-family="Arial, sans-serif" font-size="210" font-weight="700" letter-spacing="-24">FS</text>
    <text x="360" y="505" text-anchor="middle" fill="#fffdf8" fill-opacity=".62" font-family="Arial, sans-serif" font-size="19" font-weight="700" letter-spacing="9">VISUAL DESIGNER</text>
    <rect x="172" y="576" width="376" height="100" rx="50" fill="#fffdf8" fill-opacity=".08" stroke="#fffdf8" stroke-opacity=".18"/>
    <text x="360" y="619" text-anchor="middle" fill="#dfff45" font-family="Georgia, serif" font-size="32" font-style="italic">Fajar Septiawan</text>
    <text x="360" y="648" text-anchor="middle" fill="#fffdf8" fill-opacity=".52" font-family="Arial, sans-serif" font-size="12" letter-spacing="4">RENGAT · RIAU</text>
    <circle cx="133" cy="148" r="28" fill="#ff603d"/>
    <circle cx="588" cy="704" r="18" fill="#dfff45"/>
    <path d="M555 122h72v72" fill="none" stroke="#fffdf8" stroke-opacity=".45" stroke-width="4"/>
</svg>
